<svg width="60" height="60" viewBox="0 0 60 60" fill="none" xmlns="http://www.w3.org/2000/svg">
<circle cx="30" cy="30" r="30" fill="#EEF1F7"/>
<path fill-rule="evenodd" clip-rule="evenodd" d="M42.6875 29.7041H18.3125V40.9849C18.3125 41.5229 18.6653 41.9976 19.1809 42.1524C21.6299 42.8867 28.5171 44.9531 30.1496 45.443C30.3781 45.5113 30.6219 45.5113 30.8504 45.443C32.4829 44.9531 39.3701 42.8867 41.8191 42.1524C42.3347 41.9976 42.6875 41.5229 42.6875 40.9849C42.6875 38.1598 42.6875 29.7041 42.6875 29.7041Z" fill="url(#paint0_linear_237_263)"/>
<path fill-rule="evenodd" clip-rule="evenodd" d="M42.6875 29.7041H30.5C30.5 29.7041 30.3818 45.4942 30.5 45.4942C30.6182 45.4942 30.7358 45.4772 30.8504 45.443C32.4829 44.9531 39.3701 42.8867 41.8191 42.1524C42.3347 41.9976 42.6875 41.5229 42.6875 40.9849C42.6875 38.1598 42.6875 29.7041 42.6875 29.7041Z" fill="url(#paint1_linear_237_263)"/>
<path fill-rule="evenodd" clip-rule="evenodd" d="M30.5 33.6583L18.3125 29.7041C18.3125 29.7041 16.1754 32.8729 15.2199 34.289C15.1126 34.4481 15.0864 34.6474 15.1486 34.8283C15.2114 35.0093 15.3546 35.1501 15.5368 35.2098C17.8518 35.9618 24.7048 38.1884 26.5025 38.7722C26.7602 38.8563 27.043 38.7594 27.1953 38.5346C28.0125 37.3286 30.5 33.6583 30.5 33.6583Z" fill="url(#paint2_linear_237_263)"/>
<path fill-rule="evenodd" clip-rule="evenodd" d="M42.6875 29.7041L30.5 33.6583C30.5 33.6583 32.9875 37.3286 33.8046 38.5346C33.957 38.7594 34.2397 38.8563 34.4975 38.7722C36.2952 38.1884 43.1482 35.9618 45.4632 35.2098C45.6454 35.1501 45.7886 35.0093 45.8514 34.8283C45.9135 34.6474 45.8873 34.4481 45.7801 34.289C44.8246 32.8729 42.6875 29.7041 42.6875 29.7041Z" fill="url(#paint3_linear_237_263)"/>
<path fill-rule="evenodd" clip-rule="evenodd" d="M27.55 21.3977C27.3977 21.174 27.1155 21.0772 26.8578 21.1612C25.0613 21.7444 18.2065 23.9717 15.8914 24.7243C15.7092 24.7834 15.5654 24.9241 15.5033 25.1051C15.4411 25.2861 15.4673 25.486 15.5746 25.6444C16.4545 26.9497 18.3125 29.7041 18.3125 29.7041L30.5 25.7364C30.5 25.7364 28.3111 22.5171 27.55 21.3977Z" fill="url(#paint4_linear_237_263)"/>
<path fill-rule="evenodd" clip-rule="evenodd" d="M45.4254 25.6444C45.5327 25.486 45.5589 25.2861 45.4967 25.1051C45.4346 24.9241 45.2907 24.7834 45.1085 24.7243C42.7935 23.9717 35.9387 21.7444 34.1422 21.1612C33.8845 21.0772 33.6023 21.174 33.45 21.3977C32.6889 22.5171 30.5 25.7364 30.5 25.7364L42.6875 29.7041C42.6875 29.7041 44.5455 26.9497 45.4254 25.6444Z" fill="url(#paint5_linear_237_263)"/>
<path fill-rule="evenodd" clip-rule="evenodd" d="M42.6875 29.7041L30.5 25.7365L18.3125 29.7041L30.5 33.6583L42.6875 29.7041Z" fill="url(#paint6_linear_237_263)"/>
<path fill-rule="evenodd" clip-rule="evenodd" d="M30.5 33.6583V25.7365L18.3125 29.7041L30.5 33.6583Z" fill="url(#paint7_linear_237_263)"/>
<path fill-rule="evenodd" clip-rule="evenodd" d="M28.0515 27.4866C27.798 27.3209 27.5695 27.1436 27.3665 26.9577C27.1191 26.7304 26.7334 26.7469 26.5055 26.9949C26.2782 27.2423 26.2947 27.628 26.5427 27.8553C26.7919 28.0844 27.0728 28.3026 27.3848 28.5067C27.6664 28.6908 28.0442 28.6116 28.2282 28.33C28.4122 28.0485 28.333 27.6707 28.0515 27.4866Z" fill="url(#paint8_linear_237_263)"/>
<path fill-rule="evenodd" clip-rule="evenodd" d="M26.1527 25.6147C25.9717 25.3691 25.8187 25.1223 25.6932 24.8755C25.5409 24.5757 25.1734 24.4562 24.8736 24.6086C24.5738 24.7609 24.4543 25.1284 24.6067 25.4282C24.7615 25.7317 24.9492 26.0357 25.1716 26.3374C25.3708 26.6079 25.7523 26.6658 26.0235 26.4666C26.294 26.2667 26.3519 25.8852 26.1527 25.6147Z" fill="url(#paint9_linear_237_263)"/>
<path fill-rule="evenodd" clip-rule="evenodd" d="M25.2618 23.1278C25.2679 22.8822 25.3038 22.644 25.3696 22.4154C25.4623 22.0925 25.2752 21.7543 24.9516 21.6616C24.6286 21.569 24.2904 21.7561 24.1978 22.0797C24.1046 22.4063 24.0522 22.7469 24.043 23.0973C24.0351 23.4337 24.3008 23.7134 24.6372 23.7213C24.9735 23.7299 25.2532 23.4642 25.2618 23.1278Z" fill="url(#paint10_linear_237_263)"/>
<path fill-rule="evenodd" clip-rule="evenodd" d="M26.199 21.0924C26.3556 20.9474 26.5311 20.8133 26.7231 20.6921C27.0076 20.5123 27.093 20.1357 26.9138 19.8517C26.734 19.5671 26.3574 19.4818 26.0729 19.661C25.8151 19.8237 25.5811 20.0035 25.3709 20.1985C25.1241 20.427 25.1094 20.8127 25.338 21.0595C25.5665 21.3063 25.9522 21.3209 26.199 21.0924Z" fill="url(#paint11_linear_237_263)"/>
<path fill-rule="evenodd" clip-rule="evenodd" d="M28.4653 20.0413C28.7718 19.9846 29.0966 19.948 29.439 19.934C29.7754 19.9194 30.0362 19.6348 30.0222 19.299C30.0082 18.9633 29.7236 18.7019 29.3872 18.7159C28.9851 18.7329 28.6036 18.7762 28.2435 18.8426C27.9132 18.9042 27.6938 19.2223 27.7553 19.5525C27.8163 19.8834 28.1344 20.1022 28.4653 20.0413Z" fill="url(#paint12_linear_237_263)"/>
<path fill-rule="evenodd" clip-rule="evenodd" d="M31.6413 20.0053C32.1611 20.0114 32.6449 19.9931 33.094 19.9535C33.4292 19.9236 33.6772 19.6275 33.6474 19.2923C33.6175 18.9578 33.3213 18.7098 32.9862 18.7396C32.5749 18.7756 32.1318 18.7926 31.6553 18.7865C31.3189 18.7829 31.0429 19.0528 31.0392 19.3886C31.035 19.725 31.3049 20.0016 31.6413 20.0053Z" fill="url(#paint13_linear_237_263)"/>
<path fill-rule="evenodd" clip-rule="evenodd" d="M35.0971 19.58C35.7004 19.3954 36.2098 19.1589 36.6364 18.8878C36.9197 18.7068 37.0038 18.3302 36.8228 18.0462C36.6425 17.7629 36.2653 17.6788 35.9813 17.8598C35.6382 18.0779 35.2269 18.2656 34.7406 18.4143C34.4195 18.513 34.2379 18.8537 34.3366 19.1754C34.4347 19.4972 34.7759 19.6781 35.0971 19.58Z" fill="url(#paint14_linear_237_263)"/>
<path fill-rule="evenodd" clip-rule="evenodd" d="M38.1988 17.1821C38.4864 16.5874 38.5967 15.9585 38.5687 15.3522C38.5528 15.0158 38.267 14.7562 37.9313 14.7721C37.5955 14.7879 37.3353 15.0731 37.3511 15.4088C37.3706 15.8208 37.2963 16.248 37.1013 16.652C36.955 16.9548 37.0818 17.3198 37.3847 17.4661C37.6875 17.6123 38.0525 17.485 38.1988 17.1821Z" fill="url(#paint15_linear_237_263)"/>
<path fill-rule="evenodd" clip-rule="evenodd" d="M37.8106 13.1974C37.3664 12.5972 36.7637 12.1791 36.1068 12.0445C35.7772 11.9774 35.4548 12.1895 35.3872 12.5192C35.3201 12.8488 35.5328 13.1712 35.8619 13.2388C36.2409 13.3162 36.5748 13.5764 36.8314 13.9232C37.0319 14.1931 37.4139 14.2498 37.6839 14.0499C37.9545 13.8494 38.0111 13.4674 37.8106 13.1974Z" fill="url(#paint16_linear_237_263)"/>
<path fill-rule="evenodd" clip-rule="evenodd" d="M29.8498 12.1626C30.5091 8.429 36.2232 8.67031 32.8967 12.1626H29.8498Z" fill="url(#paint17_linear_237_263)"/>
<path fill-rule="evenodd" clip-rule="evenodd" d="M29.8498 13.1084C30.5091 16.8414 36.2232 16.6007 32.8967 13.1084H29.8498Z" fill="url(#paint18_linear_237_263)"/>
<path fill-rule="evenodd" clip-rule="evenodd" d="M29.7949 13.251H33.8753C34.2117 13.251 34.4847 12.978 34.4847 12.6416C34.4847 12.3052 34.2117 12.0322 33.8753 12.0322H29.7949C29.4592 12.0322 29.1855 12.3052 29.1855 12.6416C29.1855 12.978 29.4592 13.251 29.7949 13.251Z" fill="url(#paint19_linear_237_263)"/>
<defs>
<linearGradient id="paint0_linear_237_263" x1="18.3125" y1="37.5992" x2="42.6875" y2="37.5992" gradientUnits="userSpaceOnUse">
<stop stop-color="#CADCF0"/>
<stop offset="1" stop-color="#A4BBDB"/>
</linearGradient>
<linearGradient id="paint1_linear_237_263" x1="30.4476" y1="37.5992" x2="42.6875" y2="37.5992" gradientUnits="userSpaceOnUse">
<stop stop-color="#A4BBDB"/>
<stop offset="1" stop-color="#8DA3BE"/>
</linearGradient>
<linearGradient id="paint2_linear_237_263" x1="18.3935" y1="29.6992" x2="20.0969" y2="40.9686" gradientUnits="userSpaceOnUse">
<stop stop-color="#E9F3FC"/>
<stop offset="1" stop-color="#CADCF0"/>
</linearGradient>
<linearGradient id="paint3_linear_237_263" x1="30.5494" y1="33.6169" x2="43.3972" y2="41.0061" gradientUnits="userSpaceOnUse">
<stop stop-color="#E9F3FC"/>
<stop offset="1" stop-color="#CADCF0"/>
</linearGradient>
<linearGradient id="paint4_linear_237_263" x1="16.7171" y1="27.3391" x2="18.5557" y2="18.6724" gradientUnits="userSpaceOnUse">
<stop stop-color="#E9F3FC"/>
<stop offset="1" stop-color="#CADCF0"/>
</linearGradient>
<linearGradient id="paint5_linear_237_263" x1="33.7626" y1="21.0144" x2="34.42" y2="31.7118" gradientUnits="userSpaceOnUse">
<stop stop-color="#E9F3FC"/>
<stop offset="1" stop-color="#CADCF0"/>
</linearGradient>
<linearGradient id="paint6_linear_237_263" x1="18.3125" y1="29.6974" x2="42.6875" y2="29.6974" gradientUnits="userSpaceOnUse">
<stop stop-color="#CADCF0"/>
<stop offset="1" stop-color="#A4BBDB"/>
</linearGradient>
<linearGradient id="paint7_linear_237_263" x1="31.748" y1="25.5591" x2="32.0106" y2="35.4024" gradientUnits="userSpaceOnUse">
<stop stop-color="#A4BBDB"/>
<stop offset="1" stop-color="#8DA3BE"/>
</linearGradient>
<linearGradient id="paint8_linear_237_263" x1="23.7913" y1="12.1627" x2="35.8107" y2="26.3447" gradientUnits="userSpaceOnUse">
<stop stop-color="#559AFF"/>
<stop offset="1" stop-color="#2E69EF"/>
</linearGradient>
<linearGradient id="paint9_linear_237_263" x1="23.7913" y1="12.1627" x2="35.8107" y2="26.3447" gradientUnits="userSpaceOnUse">
<stop stop-color="#559AFF"/>
<stop offset="1" stop-color="#2E69EF"/>
</linearGradient>
<linearGradient id="paint10_linear_237_263" x1="23.7913" y1="12.1627" x2="35.8107" y2="26.3447" gradientUnits="userSpaceOnUse">
<stop stop-color="#559AFF"/>
<stop offset="1" stop-color="#2E69EF"/>
</linearGradient>
<linearGradient id="paint11_linear_237_263" x1="23.7914" y1="12.1626" x2="35.8107" y2="26.3446" gradientUnits="userSpaceOnUse">
<stop stop-color="#559AFF"/>
<stop offset="1" stop-color="#2E69EF"/>
</linearGradient>
<linearGradient id="paint12_linear_237_263" x1="23.7914" y1="12.1626" x2="35.8107" y2="26.3446" gradientUnits="userSpaceOnUse">
<stop stop-color="#559AFF"/>
<stop offset="1" stop-color="#2E69EF"/>
</linearGradient>
<linearGradient id="paint13_linear_237_263" x1="23.7913" y1="12.1626" x2="35.8106" y2="26.3446" gradientUnits="userSpaceOnUse">
<stop stop-color="#559AFF"/>
<stop offset="1" stop-color="#2E69EF"/>
</linearGradient>
<linearGradient id="paint14_linear_237_263" x1="23.7914" y1="12.1627" x2="35.8107" y2="26.3447" gradientUnits="userSpaceOnUse">
<stop stop-color="#559AFF"/>
<stop offset="1" stop-color="#2E69EF"/>
</linearGradient>
<linearGradient id="paint15_linear_237_263" x1="23.7913" y1="12.1627" x2="35.8106" y2="26.3447" gradientUnits="userSpaceOnUse">
<stop stop-color="#559AFF"/>
<stop offset="1" stop-color="#2E69EF"/>
</linearGradient>
<linearGradient id="paint16_linear_237_263" x1="23.7914" y1="12.1627" x2="35.8107" y2="26.3447" gradientUnits="userSpaceOnUse">
<stop stop-color="#559AFF"/>
<stop offset="1" stop-color="#2E69EF"/>
</linearGradient>
<linearGradient id="paint17_linear_237_263" x1="29.8498" y1="10.8074" x2="33.9296" y2="10.8074" gradientUnits="userSpaceOnUse">
<stop stop-color="#E9F3FC"/>
<stop offset="1" stop-color="#CADCF0"/>
</linearGradient>
<linearGradient id="paint18_linear_237_263" x1="29.8498" y1="14.4636" x2="33.9296" y2="14.4636" gradientUnits="userSpaceOnUse">
<stop stop-color="#E9F3FC"/>
<stop offset="1" stop-color="#CADCF0"/>
</linearGradient>
<linearGradient id="paint19_linear_237_263" x1="23.7914" y1="12.1626" x2="35.8107" y2="26.3446" gradientUnits="userSpaceOnUse">
<stop stop-color="#559AFF"/>
<stop offset="1" stop-color="#2E69EF"/>
</linearGradient>
</defs>
</svg>
